<?xml version="1.0" encoding="UTF-8" standalone="no"?><!DOCTYPE svg PUBLIC "-//W3C//DTD SVG 1.1//EN" "http://www.w3.org/Graphics/SVG/1.1/DTD/svg11.dtd"><svg width="100%" height="100%" viewBox="0 0 1036 1001" version="1.1" xmlns="http://www.w3.org/2000/svg" xmlns:xlink="http://www.w3.org/1999/xlink" xml:space="preserve" xmlns:serif="http://www.serif.com/" style="fill-rule:evenodd;clip-rule:evenodd;stroke-linejoin:round;stroke-miterlimit:1.41421;"><rect id="ditto-mark" x="0" y="0" width="1036" height="1001" style="fill:none;"/><g id="ditto-mark-group"><path d="M669.599,85c0,-42.773 -34.726,-77.5 -77.5,-77.5l-155,0c-42.773,0 -77.5,34.727 -77.5,77.5l0,829c0,42.773 34.727,77.5 77.5,77.5l155,0c42.774,0 77.5,-34.727 77.5,-77.5l0,-829Z" style="fill:#fff;"/><path d="M1029.2,87c0,-42.773 -34.727,-77.5 -77.5,-77.5l-155,0c-42.774,0 -77.5,34.727 -77.5,77.5l0,829c0,42.773 34.726,77.5 77.5,77.5l155,0c42.773,0 77.5,-34.727 77.5,-77.5c0,0 -135,-207.804 -135,-428.421c0,-220.618 135,-400.579 135,-400.579Z" style="fill:#fff;"/><path d="M0,916c0,42.773 34.727,77.5 77.5,77.5l155,0c42.773,0 77.5,-34.727 77.5,-77.5l0,-829c0,-42.773 -34.727,-77.5 -77.5,-77.5l-155,0c-42.773,0 -77.5,34.727 -77.5,77.5c0,0 135,231.768 135,428.421c0,196.653 -135,400.579 -135,400.579Z" style="fill:#fff;"/></g></svg>