<?xml version="1.0" standalone="no"?>
<!DOCTYPE svg PUBLIC "-//W3C//DTD SVG 20010904//EN"
 "http://www.w3.org/TR/2001/REC-SVG-20010904/DTD/svg10.dtd">
<svg version="1.0" xmlns="http://www.w3.org/2000/svg"
 width="1036.000000pt" height="1036.000000pt" viewBox="0 0 1036.000000 1036.000000"
 preserveAspectRatio="xMidYMid meet">
<metadata>
Created by potrace 1.11, written by Peter Selinger 2001-2013
</metadata>
<g transform="translate(0.000000,1036.000000) scale(0.100000,-0.100000)"
fill="#000000" stroke="none">
<path d="M4255 10097 c-224 -47 -381 -141 -502 -302 -81 -108 -137 -246 -150
-374 -9 -91 -8 -8389 1 -8476 17 -161 94 -320 212 -440 96 -97 168 -145 285
-189 63 -24 89 -30 179 -43 54 -8 1625 -9 1725 -1 39 3 77 8 85 11 65 23 109
34 114 29 3 -3 6 0 6 6 0 7 6 12 13 12 7 0 48 21 91 46 75 44 226 179 226 202
0 7 3 12 8 12 4 0 16 17 27 37 11 21 23 40 27 43 19 15 72 176 85 260 4 25 7
1946 7 4270 0 4433 2 4249 -40 4379 -19 58 -67 152 -100 198 -15 21 -63 73
-108 116 -65 64 -99 88 -181 128 -56 27 -112 52 -126 54 -13 3 -49 10 -79 17
-65 14 -1739 18 -1805 5z"/>
<path d="M707 10083 c-1 -1 -22 -4 -47 -8 -105 -14 -314 -99 -327 -132 -3 -7
-10 -13 -17 -13 -17 0 -136 -119 -171 -171 -16 -24 -34 -47 -40 -51 -5 -4 -7
-8 -2 -8 4 0 -4 -18 -18 -40 -14 -22 -22 -40 -19 -40 4 0 2 -6 -4 -12 -20 -25
-49 -141 -58 -233 -5 -58 -4 -64 46 -155 28 -52 55 -102 60 -110 13 -20 300
-600 335 -675 15 -33 45 -100 67 -150 21 -49 47 -108 57 -130 18 -39 33 -75
35 -85 1 -3 7 -15 14 -26 6 -12 8 -24 5 -28 -3 -3 -1 -6 5 -6 7 0 12 -4 12 -9
0 -5 5 -22 11 -38 6 -15 10 -30 11 -33 0 -3 6 -16 13 -30 12 -23 27 -57 29
-70 1 -3 24 -63 53 -135 57 -144 65 -167 68 -177 2 -5 4 -10 5 -13 1 -3 3 -8
5 -12 1 -5 5 -16 8 -25 16 -41 20 -54 22 -63 4 -14 44 -125 55 -150 5 -11 14
-38 20 -60 6 -22 15 -49 19 -60 11 -26 31 -89 36 -112 3 -10 14 -45 25 -78 12
-33 24 -71 26 -85 3 -14 9 -40 15 -58 6 -18 12 -39 13 -45 2 -7 5 -19 8 -27 6
-15 27 -90 34 -119 2 -9 15 -59 28 -111 14 -52 25 -96 25 -98 -1 -6 24 -119
29 -132 3 -8 6 -17 7 -20 1 -3 8 -40 15 -82 8 -43 17 -78 20 -78 4 0 6 -10 5
-22 -1 -13 2 -39 6 -58 5 -19 11 -55 14 -80 4 -25 8 -52 10 -60 3 -8 7 -33 10
-55 3 -22 8 -52 11 -67 3 -15 7 -43 9 -62 5 -56 16 -159 20 -186 26 -172 26
-812 1 -946 -2 -11 -7 -48 -10 -84 -4 -36 -11 -90 -16 -120 -5 -30 -12 -73
-15 -95 -7 -50 -14 -93 -20 -125 -3 -14 -7 -38 -10 -55 -3 -16 -7 -41 -11 -55
-3 -14 -8 -36 -10 -50 -2 -14 -6 -34 -8 -45 -2 -11 -6 -27 -10 -35 -3 -8 -8
-28 -9 -45 -2 -16 -10 -50 -17 -75 -12 -44 -16 -62 -26 -107 -2 -12 -8 -33
-13 -45 -5 -13 -9 -26 -10 -30 0 -5 -1 -9 -2 -10 0 -2 -2 -10 -4 -18 -2 -8 -6
-24 -9 -35 -2 -11 -11 -41 -19 -68 -8 -26 -13 -47 -10 -47 3 0 1 -6 -5 -12 -9
-11 -32 -84 -31 -98 0 -3 -5 -18 -11 -35 -7 -16 -13 -37 -15 -45 -2 -8 -12
-40 -23 -70 -11 -30 -39 -109 -62 -175 -43 -123 -101 -276 -126 -332 -8 -17
-14 -34 -14 -38 0 -3 -8 -25 -18 -48 -10 -23 -27 -62 -37 -87 -11 -25 -22 -47
-25 -50 -3 -3 -6 -12 -8 -20 -4 -17 -14 -40 -71 -163 -23 -49 -41 -91 -41 -93
0 -3 -31 -68 -69 -144 -39 -77 -67 -140 -63 -140 4 0 2 -4 -4 -8 -10 -6 -51
-83 -117 -217 -11 -22 -23 -42 -27 -45 -4 -3 -13 -22 -21 -42 -7 -21 -16 -38
-19 -38 -4 0 -12 -16 -20 -35 -8 -19 -17 -35 -22 -35 -4 0 -8 -5 -8 -11 0 -12
-193 -340 -222 -378 -16 -21 -18 -36 -13 -94 5 -67 19 -141 34 -182 40 -108
137 -258 207 -320 48 -43 65 -55 74 -55 6 0 10 -4 10 -9 0 -11 25 -25 105 -64
87 -42 158 -63 245 -75 59 -7 1682 -7 1741 0 68 9 168 37 211 59 21 11 38 17
38 14 0 -3 6 -1 13 5 6 5 39 28 72 49 88 58 215 188 215 220 0 6 4 11 8 11 11
0 82 150 82 171 0 9 3 19 7 23 4 3 8 14 10 24 1 9 7 40 12 67 7 33 10 1526 10
4270 1 4374 2 4222 -33 4370 -13 56 -54 140 -115 230 -52 79 -191 201 -249
219 -12 4 -22 12 -22 17 0 5 -3 8 -7 7 -5 0 -17 3 -28 7 -69 28 -115 44 -115
40 0 -3 -8 -1 -18 4 -10 5 -41 13 -68 17 -40 6 -1732 13 -1737 7z"/>
<path d="M7927 10083 c-2 -1 -27 -4 -57 -6 -30 -3 -62 -7 -70 -9 -103 -32
-133 -43 -180 -66 -30 -15 -57 -29 -60 -32 -3 -3 -23 -17 -45 -32 -54 -37
-115 -94 -115 -108 0 -6 -4 -9 -8 -6 -11 6 -94 -117 -127 -189 -15 -33 -38
-100 -50 -150 l-23 -90 0 -4220 c0 -4373 -1 -4240 36 -4386 15 -60 77 -178
125 -240 22 -29 87 -99 92 -99 2 0 15 -10 28 -23 30 -28 66 -57 72 -57 2 0 26
-13 52 -28 58 -34 146 -66 228 -83 84 -17 1744 -18 1825 -1 30 7 64 14 76 16
29 6 132 50 179 78 128 74 236 190 305 327 31 61 61 147 63 184 1 9 4 17 7 17
3 0 6 32 8 71 3 68 1 74 -37 136 -23 35 -41 66 -41 69 0 2 -11 21 -23 42 -23
36 -48 79 -110 192 -75 136 -112 207 -198 380 -50 102 -95 193 -100 203 -8 15
-60 130 -147 327 -9 19 -17 40 -18 45 -3 10 -75 187 -98 240 -7 17 -26 64 -41
105 -15 41 -38 102 -50 135 -33 86 -98 277 -100 295 -1 8 -7 25 -13 37 -7 13
-10 23 -7 23 3 0 -1 13 -10 30 -8 16 -15 32 -15 35 -1 20 -14 66 -21 71 -4 2
-6 11 -2 19 3 8 -1 15 -8 15 -7 0 -10 3 -7 6 3 3 -1 29 -9 57 -25 91 -34 121
-39 146 -3 14 -7 28 -10 33 -3 4 -7 17 -9 27 -2 11 -11 46 -19 78 -20 73 -57
230 -62 263 -2 14 -9 45 -14 70 -14 59 -19 88 -26 130 -3 19 -7 42 -9 50 -3 8
-7 33 -10 55 -10 62 -15 97 -21 130 -6 36 -10 62 -18 135 -4 30 -9 65 -12 77
-2 12 -7 57 -10 100 -3 43 -7 89 -10 103 -19 110 -25 853 -6 892 2 5 5 43 7
85 3 43 7 96 9 118 27 219 34 269 42 305 3 14 8 41 10 60 3 19 6 44 8 55 2 11
9 49 16 85 6 36 22 112 36 169 13 57 26 115 29 130 2 14 21 85 41 156 19 72
37 135 38 140 1 6 4 15 8 20 3 6 9 26 14 45 10 44 8 38 22 85 6 22 11 42 10
45 -1 3 4 15 11 28 7 13 14 31 16 40 2 9 13 41 24 70 11 29 20 54 20 55 0 1 4
15 10 30 6 16 11 35 11 43 0 8 4 14 8 14 4 0 8 10 9 21 1 12 9 37 19 57 9 19
17 40 19 46 1 6 7 24 14 40 34 83 81 202 86 216 1 3 11 27 23 53 12 27 22 53
22 58 0 5 5 9 10 9 6 0 9 3 8 8 -3 13 70 180 89 203 7 8 13 21 13 27 0 7 9 29
20 49 11 21 20 43 20 50 0 6 3 13 8 15 4 2 27 43 52 93 42 84 100 192 149 278
11 20 31 54 42 75 54 94 74 127 80 132 4 3 13 17 18 30 12 27 28 53 49 79 7 9
12 20 11 25 0 5 3 12 8 15 5 3 27 33 48 66 22 33 43 62 47 63 5 2 8 8 8 13 0
10 35 63 58 88 10 10 12 33 7 85 -8 98 -9 104 -30 166 -11 30 -20 57 -21 60
-9 31 -39 90 -46 90 -4 0 -8 6 -8 14 0 8 -11 28 -25 44 -14 17 -25 33 -25 37
0 9 -116 125 -125 125 -4 0 -15 8 -24 18 -9 10 -36 29 -61 42 -25 14 -53 31
-62 39 -10 8 -18 11 -18 6 0 -4 -6 -3 -12 2 -17 14 -99 40 -168 54 -38 8 -310
12 -893 13 -461 1 -839 0 -840 -1z"/>
</g>
</svg>
